<svg width="55" height="55" viewBox="0 0 55 55" fill="none" xmlns="http://www.w3.org/2000/svg">
<path d="M27.5 48.125V29.7917M27.5 48.125L10.1067 37.2542C9.64716 36.967 9.4174 36.8234 9.29204 36.5972C9.16669 36.371 9.16669 36.1001 9.16669 35.5582V18.3333M27.5 48.125L36.6667 42.3958L44.8934 37.2542C45.3529 36.967 45.5826 36.8234 45.708 36.5972C45.8334 36.371 45.8334 36.1001 45.8334 35.5582V18.3333M27.5 29.7917L9.16669 18.3333M27.5 29.7917L45.8334 18.3333M9.16669 18.3333L26.44 7.5375C26.9555 7.21533 27.2132 7.05425 27.5 7.05425C27.7868 7.05425 28.0446 7.21533 28.56 7.5375L45.8334 18.3333" stroke="#C8C8C8" stroke-width="2" stroke-linejoin="round"/>
<path d="M35.6666 33.2292C35.6666 33.7814 36.1144 34.2292 36.6666 34.2292C37.2189 34.2292 37.6666 33.7814 37.6666 33.2292H35.6666ZM35.7266 23.475L35.1966 24.323L35.7266 23.475ZM36.5413 24.132L37.4159 23.6472L36.5413 24.132ZM17.8033 13.4522L35.1966 24.323L36.2566 22.627L18.8633 11.7562L17.8033 13.4522ZM37.6666 33.2292V25.171H35.6666V33.2292H37.6666ZM35.1966 24.323C35.4424 24.4766 35.567 24.5557 35.6509 24.62C35.7179 24.6714 35.6936 24.6654 35.6666 24.6167L37.4159 23.6472C37.2636 23.3723 37.0618 23.1815 36.8676 23.0327C36.6904 22.8969 36.4705 22.7606 36.2566 22.627L35.1966 24.323ZM37.6666 25.171C37.6666 24.9189 37.6677 24.6601 37.6464 24.4378C37.6231 24.1943 37.5683 23.9221 37.4159 23.6472L35.6666 24.6167C35.6397 24.568 35.6475 24.5443 35.6555 24.6283C35.6656 24.7336 35.6666 24.8812 35.6666 25.171H37.6666Z" fill="#C8C8C8"/>
</svg>
