<svg width="46" height="45" viewBox="0 0 46 45" fill="none" xmlns="http://www.w3.org/2000/svg">
<path d="M27.2601 5.55099H26.2601V5.60087L26.265 5.6505L27.2601 5.55099ZM27.2601 5.55097H28.2601V5.5011L28.2551 5.45147L27.2601 5.55097ZM27.4901 7.85109L26.495 7.95059V7.95059L27.4901 7.85109ZM30.7466 9.2L30.1134 8.42604L30.7466 9.2ZM32.5356 7.73625L31.9024 6.96229V6.96229L32.5356 7.73625ZM35.2163 7.86995L34.5092 8.57706V8.57706L35.2163 7.86995ZM37.9599 10.6136L38.667 9.90646V9.90646L37.9599 10.6136ZM38.8915 11.9108L39.8903 11.861L39.8903 11.861L38.8915 11.9108ZM38.0936 13.2943L38.8676 13.9275L38.0936 13.2943ZM36.6298 15.0833L35.8559 14.4501H35.8559L36.6298 15.0833ZM37.9788 18.3399L37.8793 19.3349L37.9788 18.3399ZM40.279 18.5699L40.3785 17.5749L40.279 18.5699ZM41.8214 18.984L41.08 19.655L41.08 19.655L41.8214 18.984ZM41.8214 26.016L41.08 25.345L41.08 25.345L41.8214 26.016ZM40.279 26.4301L40.3785 27.4251H40.3785L40.279 26.4301ZM37.9795 26.66L37.88 25.665L37.9795 26.66ZM36.6306 29.9166L37.4045 29.2834L36.6306 29.9166ZM38.0937 31.7049L37.3198 32.3382L38.0937 31.7049ZM38.8916 33.0884L39.8904 33.1382V33.1382L38.8916 33.0884ZM37.96 34.3856L38.6671 35.0927L37.96 34.3856ZM35.2164 37.1292L34.5093 36.4221H34.5093L35.2164 37.1292ZM33.9192 38.0608L33.969 39.0596L33.969 39.0595L33.9192 38.0608ZM32.5357 37.2629L33.169 36.489L32.5357 37.2629ZM30.7467 35.7992L30.1135 36.5731L30.7467 35.7992ZM27.4901 37.1481L26.4951 37.0486L27.4901 37.1481ZM27.2601 39.449L28.2551 39.5485V39.5485L27.2601 39.449ZM26.846 40.9915L26.175 40.25L26.175 40.25L26.846 40.9915ZM19.8139 40.9915L20.4849 40.25L20.4849 40.25L19.8139 40.9915ZM19.3999 39.449L18.4048 39.5485L19.3999 39.449ZM19.1698 37.1488L18.1748 37.2483L19.1698 37.1488ZM18.372 34.4695L18.7547 33.5456L18.7547 33.5456L18.372 34.4695ZM15.9133 35.7999L15.28 35.0259V35.0259L15.9133 35.7999ZM14.1241 37.2638L13.4909 36.4898H13.4909L14.1241 37.2638ZM12.7406 38.0616L12.6908 39.0604L12.6908 39.0604L12.7406 38.0616ZM11.4434 37.1301L10.7363 37.8372L11.4434 37.1301ZM8.69982 34.3865L9.40693 33.6793L8.69982 34.3865ZM7.76825 33.0892L6.76949 33.1391L7.76825 33.0892ZM8.56612 31.7058L9.34008 32.339H9.34008L8.56612 31.7058ZM10.0299 29.9167L10.8039 30.5499L10.0299 29.9167ZM11.3603 27.458L10.4364 27.8406L11.3603 27.458ZM8.68103 26.6601L8.78054 25.6651H8.78054L8.68103 26.6601ZM6.38095 26.4301L6.48045 25.4351H6.48045L6.38095 26.4301ZM4.8385 18.984L4.09705 18.313L4.09705 18.313L4.8385 18.984ZM6.38095 18.5699L6.28145 17.5749H6.28145L6.38095 18.5699ZM8.68174 18.3398L8.58224 17.3448L8.68174 18.3398ZM11.361 17.542L12.2849 17.9247V17.9247L11.361 17.542ZM10.0306 15.0833L9.25669 15.7165L10.0306 15.0833ZM8.56621 13.2934L7.79225 13.9266H7.79225L8.56621 13.2934ZM8.69991 10.6127L7.9928 9.90561L8.69991 10.6127ZM11.4435 7.8691L10.7364 7.162H10.7364L11.4435 7.8691ZM14.1242 7.7354L14.7574 6.96145V6.96145L14.1242 7.7354ZM15.9134 9.19926L16.5466 8.4253L15.9134 9.19926ZM19.1699 7.85036L18.1749 7.75085V7.75085L19.1699 7.85036ZM19.3999 5.55099L20.3949 5.6505V5.6505L19.3999 5.55099ZM19.8139 4.00855L19.1429 3.26709L19.1429 3.2671L19.8139 4.00855ZM26.846 4.00855L26.175 4.75V4.75L26.846 4.00855ZM28.2601 5.55099V5.55097H26.2601V5.55099H28.2601ZM28.4851 7.75158L28.2551 5.45149L26.265 5.6505L26.495 7.95059L28.4851 7.75158ZM28.6706 9.6065C28.8445 9.67853 28.7999 9.82014 28.7127 9.47347C28.6252 9.12538 28.5702 8.60216 28.4851 7.75158L26.495 7.95059C26.5733 8.73356 26.6408 9.43548 26.7732 9.96142C26.9058 10.4888 27.1785 11.1532 27.9052 11.4543L28.6706 9.6065ZM30.1134 8.42604C29.4518 8.96734 29.0429 9.29843 28.7349 9.48264C28.4281 9.66611 28.4967 9.53447 28.6706 9.6065L27.9052 11.4543C28.6319 11.7553 29.2946 11.4782 29.7613 11.1992C30.2268 10.9208 30.7708 10.4722 31.3799 9.97396L30.1134 8.42604ZM31.9024 6.96229L30.1134 8.42604L31.3799 9.97396L33.1689 8.51021L31.9024 6.96229ZM33.9689 5.93962C33.4942 5.91594 33.1097 6.08642 32.8036 6.2773C32.5217 6.45307 32.2146 6.70687 31.9024 6.96229L33.1689 8.51021C33.5224 8.22092 33.7146 8.06618 33.8618 7.9744C33.9848 7.89773 33.9592 7.94162 33.8693 7.93714L33.9689 5.93962ZM35.9234 7.16285C35.6382 6.87762 35.3579 6.59453 35.0949 6.39158C34.8092 6.17118 34.4437 5.9633 33.9689 5.93962L33.8693 7.93714C33.7794 7.93265 33.7583 7.88643 33.873 7.97496C34.0103 8.08093 34.1862 8.25403 34.5092 8.57706L35.9234 7.16285ZM38.667 9.90646L35.9234 7.16285L34.5092 8.57706L37.2528 11.3207L38.667 9.90646ZM39.8903 11.861C39.8666 11.3862 39.6587 11.0206 39.4383 10.735C39.2354 10.472 38.9523 10.1917 38.667 9.90646L37.2528 11.3207C37.5759 11.6437 37.749 11.8195 37.8549 11.9569C37.9435 12.0716 37.8972 12.0505 37.8928 11.9606L39.8903 11.861ZM38.8676 13.9275C39.123 13.6153 39.3768 13.3082 39.5526 13.0263C39.7435 12.7202 39.9139 12.3357 39.8903 11.861L37.8928 11.9606C37.8883 11.8707 37.9322 11.8451 37.8555 11.9681C37.7637 12.1152 37.609 12.3074 37.3197 12.661L38.8676 13.9275ZM37.4038 15.7166L38.8676 13.9275L37.3197 12.661L35.8559 14.4501L37.4038 15.7166ZM36.2233 17.1594C36.2954 17.3332 36.1637 17.4019 36.3472 17.0951C36.5314 16.787 36.8625 16.3782 37.4038 15.7166L35.8559 14.4501C35.3576 15.0591 34.909 15.6032 34.6307 16.0686C34.3516 16.5353 34.0746 17.198 34.3756 17.9247L36.2233 17.1594ZM38.0783 17.3448C37.2277 17.2598 36.7045 17.2048 36.3564 17.1172C36.0097 17.03 36.1513 16.9855 36.2233 17.1594L34.3756 17.9247C34.6766 18.6514 35.3411 18.9241 35.8684 19.0568C36.3944 19.1891 37.0963 19.2566 37.8793 19.3349L38.0783 17.3448ZM40.3785 17.5749L38.0783 17.3448L37.8793 19.3349L40.1795 19.5649L40.3785 17.5749ZM42.5629 18.313C42.2439 17.9605 41.8515 17.8092 41.5001 17.7277C41.1765 17.6527 40.7798 17.615 40.3785 17.5749L40.1795 19.5649C40.634 19.6104 40.8793 19.6369 41.0483 19.6761C41.1895 19.7088 41.1404 19.7217 41.08 19.655L42.5629 18.313ZM43.08 20.56C43.08 20.1566 43.0819 19.7582 43.0394 19.4287C42.9933 19.0709 42.8818 18.6654 42.5629 18.313L41.08 19.655C41.0195 19.5882 41.0373 19.5406 41.0558 19.6844C41.078 19.8564 41.08 20.1031 41.08 20.56H43.08ZM43.08 24.44V20.56H41.08V24.44H43.08ZM42.5629 26.687C42.8818 26.3346 42.9933 25.9291 43.0394 25.5713C43.0819 25.2418 43.08 24.8434 43.08 24.44H41.08C41.08 24.8969 41.078 25.1436 41.0558 25.3156C41.0373 25.4594 41.0195 25.4118 41.08 25.345L42.5629 26.687ZM40.3785 27.4251C40.7798 27.385 41.1765 27.3473 41.5001 27.2723C41.8515 27.1908 42.2439 27.0395 42.5629 26.687L41.08 25.345C41.1404 25.2783 41.1895 25.2912 41.0483 25.3239C40.8793 25.3631 40.634 25.3896 40.1795 25.4351L40.3785 27.4251ZM38.079 27.6551L40.3785 27.4251L40.1795 25.4351L37.88 25.665L38.079 27.6551ZM36.2241 27.8406C36.152 28.0145 36.0104 27.9699 36.3571 27.8827C36.7052 27.7951 37.2284 27.7401 38.079 27.6551L37.88 25.665C37.097 25.7433 36.3951 25.8108 35.8691 25.9431C35.3418 26.0758 34.6773 26.3485 34.3763 27.0752L36.2241 27.8406ZM37.4045 29.2834C36.8632 28.6218 36.5321 28.2129 36.3479 27.9049C36.1644 27.5981 36.2961 27.6667 36.2241 27.8406L34.3763 27.0752C34.0753 27.8019 34.3523 28.4646 34.6314 28.9313C34.9097 29.3968 35.3583 29.9408 35.8566 30.5498L37.4045 29.2834ZM38.8677 31.0717L37.4045 29.2834L35.8566 30.5498L37.3198 32.3382L38.8677 31.0717ZM39.8904 33.1382C39.914 32.6634 39.7436 32.279 39.5527 31.9729C39.3769 31.691 39.1231 31.3839 38.8677 31.0717L37.3198 32.3382C37.6091 32.6917 37.7638 32.8839 37.8556 33.0311C37.9322 33.1541 37.8884 33.1285 37.8928 33.0386L39.8904 33.1382ZM38.6671 35.0927C38.9524 34.8075 39.2354 34.5271 39.4384 34.2641C39.6588 33.9785 39.8667 33.613 39.8904 33.1382L37.8928 33.0386C37.8973 32.9487 37.9435 32.9276 37.855 33.0423C37.749 33.1796 37.5759 33.3555 37.2529 33.6785L38.6671 35.0927ZM35.9235 37.8363L38.6671 35.0927L37.2529 33.6785L34.5093 36.4221L35.9235 37.8363ZM33.969 39.0595C34.4438 39.0359 34.8093 38.828 35.0949 38.6076C35.358 38.4046 35.6383 38.1215 35.9235 37.8363L34.5093 36.4221C34.1863 36.7451 34.0104 36.9182 33.8731 37.0242C33.7584 37.1127 33.7795 37.0665 33.8694 37.062L33.969 39.0595ZM31.9025 38.0369C32.2147 38.2923 32.5218 38.5461 32.8037 38.7219C33.1098 38.9128 33.4943 39.0832 33.969 39.0596L33.8694 37.062C33.9593 37.0575 33.9849 37.1014 33.8619 37.0248C33.7147 36.933 33.5225 36.7782 33.169 36.489L31.9025 38.0369ZM30.1135 36.5731L31.9025 38.0369L33.169 36.489L31.3799 35.0252L30.1135 36.5731ZM28.6707 35.3927C28.4968 35.4647 28.4282 35.3331 28.735 35.5165C29.043 35.7007 29.4519 36.0318 30.1135 36.5731L31.3799 35.0252C30.7709 34.5269 30.2269 34.0783 29.7614 33.8C29.2947 33.5209 28.632 33.2439 27.9053 33.5449L28.6707 35.3927ZM28.4852 37.2476C28.5702 36.397 28.6252 35.8738 28.7128 35.5257C28.8 35.179 28.8446 35.3206 28.6707 35.3927L27.9053 33.5449C27.1786 33.8459 26.9059 34.5104 26.7732 35.0378C26.6409 35.5637 26.5734 36.2656 26.4951 37.0486L28.4852 37.2476ZM28.2551 39.5485L28.4852 37.2476L26.4951 37.0486L26.265 39.3495L28.2551 39.5485ZM27.517 41.7329C27.8694 41.4139 28.0207 41.0216 28.1022 40.6701C28.1772 40.3465 28.215 39.9499 28.2551 39.5485L26.265 39.3495C26.2196 39.8041 26.1931 40.0494 26.1539 40.2184C26.1212 40.3595 26.1082 40.3104 26.175 40.25L27.517 41.7329ZM25.27 42.25C25.6733 42.25 26.0718 42.2519 26.4012 42.2095C26.759 42.1634 27.1645 42.0519 27.517 41.7329L26.175 40.25C26.2417 40.1896 26.2893 40.2074 26.1456 40.2259C25.9736 40.2481 25.7268 40.25 25.27 40.25V42.25ZM21.3899 42.25H25.27V40.25H21.3899V42.25ZM19.1429 41.7329C19.4954 42.0519 19.9009 42.1634 20.2587 42.2095C20.5882 42.2519 20.9866 42.25 21.3899 42.25V40.25C20.9331 40.25 20.6864 40.2481 20.5143 40.2259C20.3706 40.2074 20.4182 40.1896 20.4849 40.25L19.1429 41.7329ZM18.4048 39.5485C18.445 39.9499 18.4827 40.3465 18.5577 40.6701C18.6392 41.0216 18.7905 41.4139 19.1429 41.7329L20.4849 40.25C20.5517 40.3104 20.5387 40.3595 20.506 40.2184C20.4668 40.0494 20.4404 39.8041 20.3949 39.3495L18.4048 39.5485ZM18.1748 37.2483L18.4048 39.5485L20.3949 39.3495L20.1649 37.0493L18.1748 37.2483ZM17.9893 35.3934C17.8154 35.3214 17.86 35.1798 17.9472 35.5264C18.0347 35.8745 18.0897 36.3977 18.1748 37.2483L20.1649 37.0493C20.0866 36.2663 20.0191 35.5644 19.8867 35.0385C19.7541 34.5111 19.4814 33.8467 18.7547 33.5456L17.9893 35.3934ZM16.5465 36.5739C17.2081 36.0326 17.617 35.7015 17.925 35.5173C18.2318 35.3338 18.1632 35.4654 17.9893 35.3934L18.7547 33.5456C18.028 33.2446 17.3653 33.5217 16.8986 33.8007C16.4331 34.0791 15.8891 34.5277 15.28 35.0259L16.5465 36.5739ZM14.7574 38.0377L16.5465 36.5739L15.28 35.0259L13.4909 36.4898L14.7574 38.0377ZM12.6908 39.0604C13.1656 39.0841 13.55 38.9136 13.8562 38.7227C14.138 38.5469 14.4452 38.2932 14.7574 38.0377L13.4909 36.4898C13.1373 36.7791 12.9451 36.9338 12.7979 37.0256C12.675 37.1023 12.7005 37.0584 12.7905 37.0629L12.6908 39.0604ZM10.7363 37.8372C11.0215 38.1224 11.3019 38.4055 11.5649 38.6084C11.8505 38.8288 12.2161 39.0367 12.6908 39.0604L12.7905 37.0629C12.8804 37.0674 12.9015 37.1136 12.7867 37.0251C12.6494 36.9191 12.4736 36.746 12.1505 36.423L10.7363 37.8372ZM7.99272 35.0936L10.7363 37.8372L12.1505 36.423L9.40693 33.6793L7.99272 35.0936ZM6.76949 33.1391C6.79317 33.6138 7.00105 33.9794 7.22145 34.265C7.4244 34.528 7.70749 34.8083 7.99272 35.0936L9.40693 33.6793C9.0839 33.3563 8.9108 33.1805 8.80483 33.0431C8.7163 32.9284 8.76252 32.9495 8.76701 33.0394L6.76949 33.1391ZM7.79217 31.0725C7.53674 31.3847 7.28295 31.6918 7.10717 31.9737C6.91629 32.2799 6.74581 32.6643 6.76949 33.1391L8.76701 33.0394C8.77149 33.1293 8.7276 33.1549 8.80427 33.032C8.89605 32.8848 9.05079 32.6926 9.34008 32.339L7.79217 31.0725ZM9.25598 29.2834L7.79217 31.0725L9.34008 32.339L10.8039 30.5499L9.25598 29.2834ZM10.4364 27.8406C10.3644 27.6667 10.496 27.5981 10.3126 27.9049C10.1284 28.213 9.79729 28.6218 9.25598 29.2834L10.8039 30.5499C11.3022 29.9409 11.7508 29.3968 12.0291 28.9314C12.3082 28.4647 12.5852 27.802 12.2842 27.0753L10.4364 27.8406ZM8.58153 27.6551C9.4321 27.7402 9.95533 27.7952 10.3034 27.8828C10.6501 27.97 10.5085 28.0145 10.4364 27.8406L12.2842 27.0753C11.9832 26.3486 11.3187 26.0759 10.7914 25.9432C10.2654 25.8109 9.5635 25.7434 8.78054 25.6651L8.58153 27.6551ZM6.28145 27.4251L8.58153 27.6551L8.78054 25.6651L6.48045 25.4351L6.28145 27.4251ZM4.09705 26.687C4.41601 27.0395 4.8084 27.1908 5.15983 27.2722C5.48345 27.3473 5.88008 27.385 6.28145 27.4251L6.48045 25.4351C6.02588 25.3896 5.78056 25.3631 5.61158 25.3239C5.47042 25.2912 5.51954 25.2783 5.57996 25.345L4.09705 26.687ZM3.57996 24.44C3.57996 24.8434 3.57801 25.2418 3.62048 25.5713C3.66659 25.9291 3.77809 26.3346 4.09705 26.687L5.57996 25.345C5.64037 25.4118 5.62259 25.4594 5.60407 25.3156C5.5819 25.1436 5.57996 24.8969 5.57996 24.44H3.57996ZM3.57996 20.56V24.44H5.57996V20.56H3.57996ZM4.09705 18.313C3.77809 18.6654 3.66659 19.0709 3.62048 19.4287C3.57801 19.7582 3.57996 20.1566 3.57996 20.56H5.57996C5.57996 20.1031 5.5819 19.8564 5.60407 19.6844C5.62259 19.5406 5.64037 19.5882 5.57996 19.655L4.09705 18.313ZM6.28145 17.5749C5.88008 17.615 5.48345 17.6527 5.15983 17.7277C4.8084 17.8092 4.41601 17.9605 4.09705 18.313L5.57996 19.655C5.51954 19.7217 5.47041 19.7088 5.61158 19.6761C5.78056 19.6369 6.02588 19.6104 6.48045 19.5649L6.28145 17.5749ZM8.58224 17.3448L6.28145 17.5749L6.48045 19.5649L8.78124 19.3349L8.58224 17.3448ZM10.4371 17.1593C10.5092 16.9854 10.6508 17.03 10.3041 17.1172C9.95603 17.2047 9.43281 17.2597 8.58224 17.3448L8.78124 19.3349C9.56421 19.2566 10.2661 19.189 10.7921 19.0567C11.3194 18.9241 11.9839 18.6514 12.2849 17.9247L10.4371 17.1593ZM9.25669 15.7165C9.79799 16.3781 10.1291 16.787 10.3133 17.095C10.4968 17.4018 10.3651 17.3332 10.4371 17.1593L12.2849 17.9247C12.5859 17.198 12.3089 16.5353 12.0298 16.0686C11.7515 15.6031 11.3029 15.059 10.8046 14.45L9.25669 15.7165ZM7.79225 13.9266L9.25669 15.7165L10.8046 14.45L9.34017 12.6602L7.79225 13.9266ZM6.76958 11.8601C6.7459 12.3349 6.91638 12.7193 7.10726 13.0254C7.28303 13.3073 7.53683 13.6145 7.79225 13.9266L9.34017 12.6602C9.05088 12.3066 8.89614 12.1144 8.80436 11.9672C8.72768 11.8442 8.77158 11.8698 8.76709 11.9597L6.76958 11.8601ZM7.9928 9.90561C7.70758 10.1908 7.42449 10.4712 7.22153 10.7342C7.00114 11.0198 6.79326 11.3854 6.76958 11.8601L8.76709 11.9597C8.76261 12.0497 8.71639 12.0708 8.80492 11.956C8.91089 11.8187 9.08399 11.6429 9.40702 11.3198L7.9928 9.90561ZM10.7364 7.162L7.9928 9.90561L9.40702 11.3198L12.1506 8.57621L10.7364 7.162ZM12.6909 5.93877C12.2162 5.96245 11.8506 6.17033 11.565 6.39073C11.302 6.59368 11.0216 6.87677 10.7364 7.162L12.1506 8.57621C12.4737 8.25318 12.6495 8.08008 12.7868 7.97411C12.9016 7.88558 12.8805 7.9318 12.7905 7.93629L12.6909 5.93877ZM14.7574 6.96145C14.4453 6.70602 14.1381 6.45223 13.8562 6.27645C13.5501 6.08557 13.1657 5.91509 12.6909 5.93877L12.7905 7.93629C12.7006 7.94077 12.675 7.89688 12.798 7.97355C12.9452 8.06533 13.1374 8.22007 13.491 8.50936L14.7574 6.96145ZM16.5466 8.4253L14.7574 6.96145L13.491 8.50936L15.2801 9.97322L16.5466 8.4253ZM17.9894 9.60576C18.1633 9.53374 18.2319 9.66537 17.9251 9.48191C17.6171 9.2977 17.2082 8.96661 16.5466 8.4253L15.2801 9.97322C15.8891 10.4715 16.4332 10.9201 16.8987 11.1984C17.3654 11.4775 18.0281 11.7545 18.7548 11.4535L17.9894 9.60576ZM18.1749 7.75085C18.0898 8.60142 18.0348 9.12465 17.9473 9.47273C17.8601 9.8194 17.8155 9.67779 17.9894 9.60576L18.7548 11.4535C19.4815 11.1525 19.7542 10.488 19.8868 9.96068C20.0191 9.43475 20.0867 8.73282 20.165 7.94986L18.1749 7.75085ZM18.4048 5.45149L18.1749 7.75085L20.165 7.94986L20.3949 5.6505L18.4048 5.45149ZM19.1429 3.2671C18.7905 3.58606 18.6392 3.97844 18.5577 4.32987C18.4827 4.6535 18.445 5.05012 18.4048 5.45149L20.3949 5.6505C20.4404 5.19593 20.4668 4.95061 20.506 4.78163C20.5387 4.64046 20.5517 4.68959 20.4849 4.75L19.1429 3.2671ZM21.3899 2.75C20.9866 2.75 20.5882 2.74806 20.2587 2.79052C19.9009 2.83663 19.4954 2.94813 19.1429 3.26709L20.4849 4.75C20.4182 4.81041 20.3706 4.79264 20.5143 4.77412C20.6864 4.75194 20.9331 4.75 21.3899 4.75V2.75ZM25.27 2.75H21.3899V4.75H25.27V2.75ZM27.517 3.26709C27.1645 2.94813 26.759 2.83663 26.4012 2.79052C26.0718 2.74806 25.6733 2.75 25.27 2.75V4.75C25.7268 4.75 25.9736 4.75194 26.1456 4.77412C26.2893 4.79264 26.2417 4.81041 26.175 4.75L27.517 3.26709ZM28.2551 5.45147C28.215 5.05011 28.1772 4.65349 28.1022 4.32987C28.0207 3.97843 27.8694 3.58605 27.517 3.26709L26.175 4.75C26.1082 4.68959 26.1212 4.64046 26.1539 4.78163C26.1931 4.9506 26.2196 5.19592 26.265 5.65048L28.2551 5.45147ZM29.83 22.5C29.83 26.0899 26.9198 29 23.33 29V31C28.0244 31 31.83 27.1944 31.83 22.5H29.83ZM23.33 16C26.9198 16 29.83 18.9101 29.83 22.5H31.83C31.83 17.8056 28.0244 14 23.33 14V16ZM16.83 22.5C16.83 18.9101 19.7401 16 23.33 16V14C18.6355 14 14.83 17.8056 14.83 22.5H16.83ZM23.33 29C19.7401 29 16.83 26.0899 16.83 22.5H14.83C14.83 27.1944 18.6355 31 23.33 31V29Z" fill="#C8C8C8"/>
</svg>
